<svg xmlns="http://www.w3.org/2000/svg" viewBox="0 0 64 64"><rect width="64" height="64" rx="8" fill="#064c84"/><g fill="#ffdc4a"><circle cx="32" cy="9" r="2"/><circle cx="43" cy="12" r="2"/><circle cx="51" cy="20" r="2"/><circle cx="54" cy="31" r="2"/><circle cx="51" cy="42" r="2"/><circle cx="43" cy="50" r="2"/><circle cx="32" cy="53" r="2"/><circle cx="21" cy="50" r="2"/><circle cx="13" cy="42" r="2"/><circle cx="10" cy="31" r="2"/><circle cx="13" cy="20" r="2"/><circle cx="21" cy="12" r="2"/></g><g stroke="#fff" stroke-width="2" stroke-linejoin="round"><path d="M28 22v-5h8v5M23 22h18v26H23z" fill="#064c84"/><path d="M25 48c-1-12 7-17 20-18-1 12-8 19-20 18Z" fill="#5baf4f"/><path d="m25 49 15-14" fill="none"/></g></svg>
